<?xml version="1.0" standalone="no"?>
<!DOCTYPE svg PUBLIC "-//W3C//DTD SVG 20010904//EN"
 "http://www.w3.org/TR/2001/REC-SVG-20010904/DTD/svg10.dtd">
<svg version="1.0" xmlns="http://www.w3.org/2000/svg"
 width="1700.000000pt" height="1300.000000pt" viewBox="0 0 1700.000000 1300.000000"
 preserveAspectRatio="xMidYMid meet">
<metadata>
Created by potrace 1.15, written by Peter Selinger 2001-2017
</metadata>
<g transform="translate(0.000000,1300.000000) scale(0.100000,-0.100000)"
fill="#000000" stroke="none">
<path d="M5076 8853 c-4 -71 -18 -187 -31 -259 -33 -176 -609 -2844 -641
-2964 -23 -91 -126 -396 -145 -432 -9 -17 13 -18 411 -18 l420 0 0 75 c0 158
-6 127 434 2157 185 851 336 1552 336 1558 0 7 -129 10 -389 10 l-388 0 -7
-127z"/>
<path d="M6489 8885 c-105 -34 -189 -115 -229 -222 -18 -48 -21 -73 -18 -143
3 -73 9 -94 38 -148 38 -72 87 -119 162 -159 48 -25 62 -28 158 -28 91 0 112
3 155 25 70 34 136 99 171 167 27 53 29 67 29 163 0 100 -1 108 -34 168 -65
120 -168 184 -306 189 -51 2 -97 -3 -126 -12z"/>
<path d="M1900 7655 c-215 -44 -342 -141 -439 -335 -28 -56 -62 -138 -76 -183
-48 -159 -326 -1390 -333 -1477 -24 -293 65 -420 325 -465 73 -13 256 -15
1217 -15 l1132 0 73 180 c41 99 72 183 69 185 -2 3 -38 -3 -79 -12 -65 -14
-186 -17 -1019 -20 -669 -3 -956 -1 -982 7 -21 6 -43 20 -49 32 -19 36 -2 156
60 423 l58 250 1086 3 c1023 2 1086 3 1091 20 3 9 49 208 102 442 l98 425 0
150 c1 145 0 152 -27 207 -15 31 -44 71 -64 89 -51 44 -146 86 -223 98 -104
17 -1937 13 -2020 -4z m1584 -315 c56 -13 81 -41 81 -93 0 -23 -34 -187 -75
-364 l-75 -323 -737 0 c-542 0 -738 3 -738 11 0 17 128 575 146 637 19 67 68
117 126 130 55 13 1220 15 1272 2z"/>
<path d="M6097 7543 c-8 -174 -31 -292 -233 -1168 -170 -733 -213 -897 -289
-1090 -19 -50 -35 -93 -35 -97 0 -5 176 -8 390 -8 l390 0 0 43 c0 134 11 190
291 1426 126 557 229 1015 229 1017 0 2 -166 4 -369 4 l-368 0 -6 -127z"/>
<path d="M10320 7580 c0 -144 -47 -383 -235 -1196 -181 -783 -206 -877 -281
-1072 -24 -62 -44 -118 -44 -123 0 -5 165 -9 390 -9 l390 0 0 43 c0 61 18 196
41 312 17 84 455 2032 475 2109 l6 26 -371 0 -371 0 0 -90z"/>
<path d="M11746 7558 c-8 -135 -8 -134 -225 -1088 -207 -904 -244 -1047 -320
-1237 l-21 -53 395 0 395 0 0 96 c0 52 5 128 11 167 15 99 354 1612 373 1665
22 62 52 99 99 125 41 22 49 22 372 21 247 0 368 -5 480 -18 l150 -18 77 84
c43 46 78 88 78 95 0 7 -33 71 -72 143 l-73 130 -405 -2 c-395 -3 -406 -4
-461 -26 -63 -25 -136 -84 -182 -147 l-29 -40 6 70 c4 39 9 87 12 108 l6 37
-330 0 -329 0 -7 -112z"/>
<path d="M8373 1941 c-88 -30 -152 -90 -192 -182 -25 -57 -110 -393 -117 -468
-8 -75 12 -119 69 -152 41 -23 49 -24 317 -29 l275 -5 3 -23 c2 -12 -4 -46
-12 -75 -11 -40 -22 -57 -41 -65 -18 -9 -128 -12 -369 -12 l-343 0 -24 -102
-24 -103 502 -3 c482 -2 504 -1 556 18 130 49 175 122 247 410 56 221 63 287
37 337 -40 75 -119 93 -418 93 -255 0 -251 -2 -222 87 16 51 22 59 53 70 24 8
137 12 367 12 l332 1 10 38 c25 94 41 160 41 166 0 3 -224 6 -497 6 -452 -1
-503 -2 -550 -19z"/>
<path d="M9691 1923 c-6 -21 -73 -292 -151 -603 -77 -311 -143 -573 -146 -583
-5 -16 9 -17 237 -15 l243 3 54 217 54 217 317 3 316 3 57 28 c62 31 116 86
149 153 11 24 38 114 60 200 57 228 53 305 -20 367 -52 44 -99 47 -646 47
l-514 0 -10 -37z m713 -183 c34 -13 34 -40 -4 -193 -26 -102 -36 -127 -60
-149 -30 -28 -32 -28 -165 -28 -88 0 -135 4 -135 11 0 9 51 217 81 332 l10 37
124 0 c68 0 135 -4 149 -10z"/>
<path d="M11124 1373 c-235 -324 -438 -603 -452 -620 l-24 -33 123 0 124 1
120 164 120 165 266 0 266 0 28 -165 28 -165 254 0 c217 0 253 2 253 15 0 16
-186 1164 -195 1203 l-5 22 -240 0 -239 0 -427 -587z m476 89 c18 -106 30
-195 28 -198 -3 -2 -80 -3 -171 -2 l-167 3 138 196 c75 108 138 196 138 195 1
0 16 -88 34 -194z"/>
<path d="M12657 1340 l-155 -620 242 0 241 0 153 613 c84 336 152 615 152 620
0 4 -107 7 -239 7 l-239 0 -155 -620z"/>
<path d="M13437 1340 l-155 -620 108 0 108 0 123 495 c68 272 126 491 130 487
3 -4 57 -209 118 -457 62 -247 116 -467 122 -487 l10 -38 309 0 309 0 10 38
c6 20 73 291 151 602 77 311 143 573 146 583 5 15 -4 17 -103 17 l-108 0 -124
-495 c-68 -273 -125 -494 -127 -492 -5 4 -244 966 -244 978 0 5 -141 9 -314 9
l-314 0 -155 -620z"/>
</g>
</svg>
